<?xml version="1.0" encoding="UTF-8"?>
<svg version="1.1" xmlns="http://www.w3.org/2000/svg" width="500" height="500">
<path d="M0 0 C15.07260438 14.10341252 16.70112732 34.66204283 17.65478516 54.02099609 C17.83291017 59.43876183 17.81645352 64.85358931 17.76171875 70.2734375 C18.52959717 70.55477539 19.29747559 70.83611328 20.08862305 71.12597656 C26.57184962 73.54915844 32.24242645 76.60192437 38.01171875 80.3984375 C38.67953369 80.8301123 39.34734863 81.26178711 40.03540039 81.70654297 C41.67051065 82.81201179 43.22500347 84.03482819 44.76171875 85.2734375 C44.76171875 86.2634375 44.76171875 87.2534375 44.76171875 88.2734375 C46.41171875 88.6034375 48.06171875 88.9334375 49.76171875 89.2734375 C49.76171875 90.2634375 49.76171875 91.2534375 49.76171875 92.2734375 C50.42171875 92.2734375 51.08171875 92.2734375 51.76171875 92.2734375 C51.76171875 92.9334375 51.76171875 93.5934375 51.76171875 94.2734375 C52.42171875 94.4590625 53.08171875 94.6446875 53.76171875 94.8359375 C57.3936005 96.57621417 59.82487653 98.9274272 62.69921875 101.71484375 C66.89192018 104.88319199 71.98150063 104.40496011 77.0546875 104.44921875 C78.49594874 104.46913207 79.93719256 104.49033906 81.37841797 104.51269531 C82.49938873 104.52943298 82.49938873 104.52943298 83.64300537 104.54650879 C113.96007901 105.06483166 138.88051099 112.67028859 160.99609375 134.4765625 C165.76171875 139.6234375 165.76171875 139.6234375 165.76171875 144.2734375 C166.75171875 144.2734375 167.74171875 144.2734375 168.76171875 144.2734375 C169.09171875 146.2534375 169.42171875 148.2334375 169.76171875 150.2734375 C170.75171875 150.2734375 171.74171875 150.2734375 172.76171875 150.2734375 C178.87631141 164.69212762 185.05130121 179.40744587 185.76171875 195.2734375 C185.8390625 196.58828125 185.8390625 196.58828125 185.91796875 197.9296875 C186.1508376 204.68288402 186.1508376 204.68288402 184.69775391 206.88818359 C181.79394425 208.96589053 178.89303295 208.66211271 175.45703125 208.6015625 C174.71727051 208.60005188 173.97750977 208.59854126 173.21533203 208.59698486 C170.7721101 208.58755182 168.32973476 208.55590598 165.88671875 208.5234375 C164.19385371 208.51147929 162.50098208 208.50042293 160.80810547 208.49023438 C143.12117634 208.35561453 125.43889144 207.85433393 107.76171875 207.2734375 C107.66120039 211.30770337 107.58949361 215.34146295 107.54199219 219.37670898 C107.52214608 220.7430494 107.49505961 222.10930809 107.45996094 223.4753418 C107.22718456 232.78297383 107.56169317 241.77702012 111.76171875 250.2734375 C114.04310641 252.51881068 116.22152393 254.21776782 118.93359375 255.90625 C119.536875 256.35742188 120.14015625 256.80859375 120.76171875 257.2734375 C120.76171875 258.2634375 120.76171875 259.2534375 120.76171875 260.2734375 C121.44234375 260.4384375 122.12296875 260.6034375 122.82421875 260.7734375 C133.10342823 266.02239553 137.91673686 278.71350277 141.46484375 289.09765625 C145.55087599 301.74524666 148.71962372 314.88405476 147.76171875 328.2734375 C147.69339844 329.38332031 147.62507813 330.49320312 147.5546875 331.63671875 C145.80872007 350.72724174 139.03135351 371.04991526 125.76171875 385.2734375 C124.77171875 385.2734375 123.78171875 385.2734375 122.76171875 385.2734375 C122.42140625 386.3253125 122.42140625 386.3253125 122.07421875 387.3984375 C120.36392454 391.14479624 118.72816036 393.37441501 115.76171875 396.2734375 C112.88671875 397.0234375 112.88671875 397.0234375 109.76171875 396.2734375 C107.05333794 394.58834636 104.81517148 392.71802408 102.76171875 390.2734375 C102.38503531 388.61603035 102.0411433 386.94998479 101.76171875 385.2734375 C99.49946493 384.20089399 99.49946493 384.20089399 96.76171875 383.2734375 C92.28458342 380.08778352 90.75997383 378.54992862 89.76171875 373.2734375 C88.12137682 372.54439664 86.44869957 371.88688507 84.76171875 371.2734375 C81.94921875 368.8359375 81.94921875 368.8359375 79.76171875 366.2734375 C79.76171875 365.2834375 79.76171875 364.2934375 79.76171875 363.2734375 C79.22546875 363.2115625 78.68921875 363.1496875 78.13671875 363.0859375 C74.50523469 361.84358769 72.40381433 360.03562834 69.76171875 357.2734375 C68.82421875 354.0859375 68.82421875 354.0859375 69.76171875 350.2734375 C72.33089076 346.44454244 75.0096407 342.98135927 78.76171875 340.2734375 C82.66992054 340.37984893 84.20770036 340.77773684 87.13671875 343.3984375 C88.00296875 344.3471875 88.86921875 345.2959375 89.76171875 346.2734375 C91.04325226 347.38934909 92.33581052 348.49267423 93.63671875 349.5859375 C97.11797286 352.59039695 100.05452292 355.83512193 103.01953125 359.33984375 C105.689949 362.30364821 108.67416408 364.75298471 111.76171875 367.2734375 C123.56373158 351.21296643 128.34414204 330.91795683 125.45263672 311.16162109 C122.46375478 294.78193734 114.74726418 281.67432218 102.76171875 270.2734375 C102.62636719 270.83546875 102.49101562 271.3975 102.3515625 271.9765625 C95.64442192 298.16252452 84.38568947 320.68641742 66.76171875 341.2734375 C66.05660156 342.10230469 65.35148437 342.93117188 64.625 343.78515625 C60.94503561 348.02587712 57.32716787 351.9820672 52.76171875 355.2734375 C51.77171875 355.2734375 50.78171875 355.2734375 49.76171875 355.2734375 C49.76171875 356.2634375 49.76171875 357.2534375 49.76171875 358.2734375 C48.11171875 358.6034375 46.46171875 358.9334375 44.76171875 359.2734375 C44.66133301 359.88767578 44.56094727 360.50191406 44.45751953 361.13476562 C43.27921508 364.75650143 39.79815826 366.00568602 36.63671875 367.7734375 C35.98445313 368.15113281 35.3321875 368.52882813 34.66015625 368.91796875 C33.35028236 369.67426498 32.03621215 370.42334057 30.71801758 371.16503906 C29.40739668 371.90760975 28.10507324 372.66500831 26.8112793 373.43652344 C23.25394916 375.54727142 20.95608342 376.78184534 16.76171875 376.2734375 C16.59736328 377.36374268 16.59736328 377.36374268 16.4296875 378.47607422 C15.71900183 381.4523302 14.68091109 383.43829737 13.07421875 386.03125 C12.54054688 386.90394531 12.006875 387.77664063 11.45703125 388.67578125 C10.89757812 389.57425781 10.338125 390.47273438 9.76171875 391.3984375 C8.6549922 393.1911305 7.55071216 394.98533683 6.44921875 396.78125 C5.95808594 397.57160645 5.46695313 398.36196289 4.9609375 399.17626953 C3.62741839 401.34898672 3.62741839 401.34898672 2.76171875 404.2734375 C1.77171875 404.2734375 0.78171875 404.2734375 -0.23828125 404.2734375 C-0.37556641 405.54574219 -0.37556641 405.54574219 -0.515625 406.84375 C-1.34497676 410.77980863 -2.83555622 413.6467638 -4.80078125 417.1484375 C-5.44144531 418.30085938 -6.08210937 419.45328125 -6.7421875 420.640625 C-7.48275391 421.94386719 -7.48275391 421.94386719 -8.23828125 423.2734375 C-9.22828125 423.2734375 -10.21828125 423.2734375 -11.23828125 423.2734375 C-11.30015625 424.1396875 -11.36203125 425.0059375 -11.42578125 425.8984375 C-12.62336787 430.87302806 -14.96306335 433.70831945 -19.078125 436.5390625 C-26.41815502 440.42094057 -34.86767464 440.37774862 -42.87890625 438.73046875 C-45.05078125 438.0234375 -45.05078125 438.0234375 -48.23828125 436.2734375 C-48.9375 434.1640625 -48.9375 434.1640625 -49.23828125 432.2734375 C-49.84333496 432.18763428 -50.44838867 432.10183105 -51.07177734 432.01342773 C-53.88535389 431.05242362 -54.42048174 429.97845619 -55.90234375 427.43359375 C-56.37961914 426.62672119 -56.85689453 425.81984863 -57.34863281 424.98852539 C-57.8484668 424.11317139 -58.34830078 423.23781738 -58.86328125 422.3359375 C-59.38889648 421.4380249 -59.91451172 420.5401123 -60.45605469 419.61499023 C-64.30673845 413.00178364 -68.0380061 406.32074601 -71.70703125 399.60522461 C-74.85286602 393.86934492 -78.26076118 388.34972314 -81.83984375 382.875 C-83.23828125 380.2734375 -83.23828125 380.2734375 -83.23828125 376.2734375 C-83.92277344 376.18191406 -84.60726562 376.09039062 -85.3125 375.99609375 C-88.93884488 375.10040109 -91.78875433 373.52317468 -95.05078125 371.7109375 C-95.94700195 371.2169043 -95.94700195 371.2169043 -96.86132812 370.71289062 C-98.32362123 369.90570483 -99.78142115 369.09038833 -101.23828125 368.2734375 C-101.23828125 367.2834375 -101.23828125 366.2934375 -101.23828125 365.2734375 C-101.93308594 365.19867188 -102.62789062 365.12390625 -103.34375 365.046875 C-107.00330372 364.06901854 -109.59569192 362.1677163 -112.55078125 359.8984375 C-113.37545898 359.29902344 -113.37545898 359.29902344 -114.21679688 358.6875 C-115.7890625 357.5 -115.7890625 357.5 -118.23828125 355.2734375 C-118.23828125 354.2834375 -118.23828125 353.2934375 -118.23828125 352.2734375 C-118.89828125 352.2734375 -119.55828125 352.2734375 -120.23828125 352.2734375 C-120.23828125 351.6134375 -120.23828125 350.9534375 -120.23828125 350.2734375 C-120.89828125 350.2734375 -121.55828125 350.2734375 -122.23828125 350.2734375 C-122.23828125 349.6134375 -122.23828125 348.9534375 -122.23828125 348.2734375 C-122.89828125 348.2734375 -123.55828125 348.2734375 -124.23828125 348.2734375 C-124.23828125 347.6134375 -124.23828125 346.9534375 -124.23828125 346.2734375 C-127.50646963 346.63656954 -128.39568795 347.4308442 -130.80078125 349.8359375 C-131.60515625 350.6403125 -132.40953125 351.4446875 -133.23828125 352.2734375 C-134.22828125 352.2734375 -135.21828125 352.2734375 -136.23828125 352.2734375 C-136.42390625 352.9540625 -136.60953125 353.6346875 -136.80078125 354.3359375 C-138.52274627 357.85473559 -140.74671176 359.9698915 -143.58203125 362.625 C-145.4481681 364.3732979 -145.4481681 364.3732979 -147.23828125 367.2734375 C-148.22828125 367.2734375 -149.21828125 367.2734375 -150.23828125 367.2734375 C-150.42261719 367.95019531 -150.60695313 368.62695312 -150.796875 369.32421875 C-152.84781985 373.52059642 -155.94841591 376.26231973 -159.30078125 379.4609375 C-160.58541157 380.70227998 -161.86806406 381.94567351 -163.1484375 383.19140625 C-163.71699463 383.73563232 -164.28555176 384.2798584 -164.87133789 384.84057617 C-166.34792522 386.24788313 -166.34792522 386.24788313 -167.23828125 388.2734375 C-168.22828125 388.2734375 -169.21828125 388.2734375 -170.23828125 388.2734375 C-170.23828125 388.9334375 -170.23828125 389.5934375 -170.23828125 390.2734375 C-170.89828125 390.2734375 -171.55828125 390.2734375 -172.23828125 390.2734375 C-172.50640625 391.0365625 -172.77453125 391.7996875 -173.05078125 392.5859375 C-174.86465488 396.69101992 -174.86465488 396.69101992 -177.23828125 398.2734375 C-181.82572691 397.96242423 -183.90333873 396.12417461 -187.05078125 392.8984375 C-187.84097656 392.10695313 -188.63117188 391.31546875 -189.4453125 390.5 C-191.23828125 388.2734375 -191.23828125 388.2734375 -191.23828125 385.2734375 C-191.80804688 385.24507813 -192.3778125 385.21671875 -192.96484375 385.1875 C-196.48882177 383.77064286 -197.79951471 380.81094253 -199.61328125 377.6484375 C-200.00467285 376.9790918 -200.39606445 376.30974609 -200.79931641 375.62011719 C-213.3756644 353.52499738 -218.68416554 326.3252849 -212.203125 301.38671875 C-206.22392931 282.09352456 -196.11487492 266.92884668 -181.76953125 252.859375 C-177.57707857 248.57634464 -173.36579282 244.09954573 -173.15649414 237.81933594 C-173.17446045 236.8502832 -173.19242676 235.88123047 -173.2109375 234.8828125 C-173.22487549 233.79242676 -173.23881348 232.70204102 -173.25317383 231.57861328 C-173.26888428 230.40540527 -173.28459473 229.23219727 -173.30078125 228.0234375 C-173.48866399 190.38175651 -165.09500741 157.89724249 -146.23828125 125.2734375 C-171.80892202 126.99791904 -171.80892202 126.99791904 -194.37109375 138.13671875 C-196.23828125 139.2734375 -196.23828125 139.2734375 -200.23828125 139.2734375 C-200.36203125 139.8921875 -200.48578125 140.5109375 -200.61328125 141.1484375 C-201.23828125 143.2734375 -201.23828125 143.2734375 -203.23828125 145.2734375 C-204.55828125 145.2734375 -205.87828125 145.2734375 -207.23828125 145.2734375 C-207.47933594 145.97082031 -207.72039062 146.66820312 -207.96875 147.38671875 C-209.45608766 150.76869577 -211.38317582 153.4700063 -213.55078125 156.4609375 C-219.35457002 164.72128903 -223.15036104 172.20942812 -225.375 182.1015625 C-225.6463678 183.28226318 -225.6463678 183.28226318 -225.92321777 184.48681641 C-226.36570544 186.41474614 -226.80256412 188.34396633 -227.23828125 190.2734375 C-226.02245361 190.26820068 -224.80662598 190.26296387 -223.55395508 190.25756836 C-219.0345941 190.23944126 -214.51523633 190.22797729 -209.99584961 190.21850586 C-208.04141702 190.21348328 -206.08698819 190.20666401 -204.13256836 190.19799805 C-201.32014032 190.18584161 -198.50776206 190.18018837 -195.6953125 190.17578125 C-194.82429398 190.17061996 -193.95327545 190.16545868 -193.05586243 190.16014099 C-188.98202586 190.15976596 -185.21238686 190.24522217 -181.23828125 191.2734375 C-181.13931772 197.50814004 -181.53635825 202.95613049 -182.23828125 209.2734375 C-204.01828125 209.2734375 -225.79828125 209.2734375 -248.23828125 209.2734375 C-248.23828125 186.00624475 -248.23828125 186.00624475 -246.61328125 178.9609375 C-246.34704956 177.73322632 -246.34704956 177.73322632 -246.07543945 176.48071289 C-242.6516727 161.58144448 -236.07249704 145.49655955 -224.23828125 135.2734375 C-223.24828125 135.2734375 -222.25828125 135.2734375 -221.23828125 135.2734375 C-221.23828125 134.6134375 -221.23828125 133.9534375 -221.23828125 133.2734375 C-220.57828125 133.2734375 -219.91828125 133.2734375 -219.23828125 133.2734375 C-219.23828125 132.6134375 -219.23828125 131.9534375 -219.23828125 131.2734375 C-218.57828125 131.2734375 -217.91828125 131.2734375 -217.23828125 131.2734375 C-217.23828125 130.6134375 -217.23828125 129.9534375 -217.23828125 129.2734375 C-216.57828125 129.2734375 -215.91828125 129.2734375 -215.23828125 129.2734375 C-215.16222656 128.68103271 -215.08617187 128.08862793 -215.0078125 127.47827148 C-212.48327797 120.24506358 -198.68727089 114.72950768 -192.23828125 111.2734375 C-186.75566349 108.76814268 -181.16041417 107.31030926 -175.23828125 106.2734375 C-174.58633789 106.15613281 -173.93439453 106.03882813 -173.26269531 105.91796875 C-157.83906489 103.3385126 -141.83683682 103.63937729 -126.23828125 103.2734375 C-125.94026611 102.48936523 -125.64225098 101.70529297 -125.33520508 100.89746094 C-123.61298282 96.77762011 -120.70104372 94.030272 -117.23828125 91.2734375 C-114.30078125 90.3359375 -114.30078125 90.3359375 -112.23828125 90.2734375 C-112.23828125 89.2834375 -112.23828125 88.2934375 -112.23828125 87.2734375 C-109.76328125 86.7784375 -109.76328125 86.7784375 -107.23828125 86.2734375 C-107.18285156 85.68820313 -107.12742188 85.10296875 -107.0703125 84.5 C-105.85846904 81.25703862 -103.85404788 80.40927597 -100.92578125 78.6484375 C-99.96027344 78.05804688 -98.99476563 77.46765625 -98 76.859375 C-95.77241249 75.58016633 -93.54015174 74.40822736 -91.23828125 73.2734375 C-91.21846191 72.54455322 -91.19864258 71.81566895 -91.17822266 71.06469727 C-89.65955741 17.79814289 -89.65955741 17.79814289 -73.21875 0.05078125 C-69.59955199 -3.19721697 -65.50979691 -5.44842082 -61.23828125 -7.7265625 C-60.59117187 -8.1184375 -59.9440625 -8.5103125 -59.27734375 -8.9140625 C-40.3917042 -19.75139153 -16.08434281 -12.40711958 0 0 Z M-39.17578125 6.5234375 C-39.96146484 6.55050781 -40.74714844 6.57757813 -41.55664062 6.60546875 C-48.64042427 6.9729956 -53.39098494 8.957048 -58.23828125 14.2734375 C-59.44484375 15.3253125 -59.44484375 15.3253125 -60.67578125 16.3984375 C-72.47576635 29.63744517 -71.51739532 48.61963149 -71.23828125 65.2734375 C-65.949354 64.85368137 -60.86984986 64.21680711 -55.67382812 63.12890625 C-38.04998295 59.55402201 -19.93662454 60.77064148 -2.23828125 63.2734375 C-1.96813105 43.27320427 -1.96813105 43.27320427 -7.23828125 24.2734375 C-7.89828125 24.2734375 -8.55828125 24.2734375 -9.23828125 24.2734375 C-9.73328125 21.3034375 -9.73328125 21.3034375 -10.23828125 18.2734375 C-11.22828125 18.2734375 -12.21828125 18.2734375 -13.23828125 18.2734375 C-13.58439453 17.13648438 -13.58439453 17.13648438 -13.9375 15.9765625 C-15.51143182 12.70580928 -16.92632337 11.80348847 -20.05078125 10.0234375 C-20.90285156 9.52328125 -21.75492188 9.023125 -22.6328125 8.5078125 C-28.13151114 5.90273188 -33.23532918 6.20338049 -39.17578125 6.5234375 Z M-69.23828125 85.2734375 C-68.59218613 88.86731626 -67.65566084 92.21132954 -66.4609375 95.66015625 C-66.11224609 96.68173828 -65.76355469 97.70332031 -65.40429688 98.75585938 C-64.67504523 100.87391591 -63.94331812 102.99112194 -63.20898438 105.10742188 C-58.25585843 119.65665924 -57.15611542 133.60648732 -56.67578125 148.8984375 C-56.63259766 150.18878906 -56.58941406 151.47914063 -56.54492188 152.80859375 C-56.43975977 155.96345683 -56.33761521 159.11838645 -56.23828125 162.2734375 C-46.09610061 163.98263258 -36.49650634 164.51324016 -26.23828125 164.2734375 C-26.33109375 165.9440625 -26.33109375 165.9440625 -26.42578125 167.6484375 C-26.38947581 173.27312952 -26.38947581 173.27312952 -23.23828125 182.2734375 C-35.77828125 181.9434375 -48.31828125 181.6134375 -61.23828125 181.2734375 C-63.21828125 185.5221875 -65.19828125 189.7709375 -67.23828125 194.1484375 C-67.86476562 195.4876123 -68.49125 196.82678711 -69.13671875 198.20654297 C-69.86761719 199.78266357 -69.86761719 199.78266357 -70.61328125 201.390625 C-71.11601562 202.46940918 -71.61875 203.54819336 -72.13671875 204.65966797 C-73.36773619 207.10787079 -73.36773619 207.10787079 -73.23828125 209.2734375 C-74.10066406 209.60214844 -74.10066406 209.60214844 -74.98046875 209.9375 C-77.95397879 211.69691251 -79.37800884 213.83282302 -81.36328125 216.6484375 C-82.38808594 218.08316406 -82.38808594 218.08316406 -83.43359375 219.546875 C-84.8940145 221.75331154 -86.13584666 223.87535813 -87.23828125 226.2734375 C-86.76777344 226.79292969 -86.29726562 227.31242188 -85.8125 227.84765625 C-80.54490146 233.74780286 -80.54490146 233.74780286 -78.48828125 237.2734375 C-78.07578125 237.9334375 -77.66328125 238.5934375 -77.23828125 239.2734375 C-76.24828125 239.2734375 -75.25828125 239.2734375 -74.23828125 239.2734375 C-74.11453125 240.046875 -74.11453125 240.046875 -73.98828125 240.8359375 C-73.15351389 243.54893144 -71.85398579 245.78805964 -70.37109375 248.19921875 C-68.76988615 251.13108507 -67.54036058 254.19817477 -66.23828125 257.2734375 C-65.74328125 258.30339844 -65.24828125 259.33335937 -64.73828125 260.39453125 C-53.20435599 285.89531914 -55.10505113 318.18319853 -62.67578125 344.5859375 C-62.86873779 345.26092285 -63.06169434 345.9359082 -63.26049805 346.63134766 C-64.3065601 350.02497252 -65.59252178 353.02791925 -67.3984375 356.06640625 C-69.48708992 359.09091811 -69.48708992 359.09091811 -69.23828125 362.2734375 C-66.73973358 362.92536438 -64.23966755 363.57006814 -61.73828125 364.2109375 C-61.0421875 364.39333984 -60.34609375 364.57574219 -59.62890625 364.76367188 C-50.49094705 367.09046704 -41.38098107 367.59791187 -31.98828125 368.0234375 C-30.83714844 368.09175781 -29.68601563 368.16007812 -28.5 368.23046875 C-20.15783273 368.59726077 -11.84505719 368.07682547 -4.23828125 364.2734375 C-5.14700864 358.82107316 -6.47616279 354.57895163 -9.11328125 349.7109375 C-15.27628011 337.94247268 -17.43598911 324.46580385 -17.3359375 311.2734375 C-17.33452255 310.5522876 -17.3331076 309.8311377 -17.33164978 309.08813477 C-17.32611506 306.81652426 -17.31357548 304.5450175 -17.30078125 302.2734375 C-17.29575779 300.72005352 -17.29119637 299.16666798 -17.28710938 297.61328125 C-17.27616714 293.83329422 -17.25894885 290.05338336 -17.23828125 286.2734375 C-21.18927404 286.13056644 -25.14028333 285.98816176 -29.09130859 285.84619141 C-31.09733967 285.7740111 -33.1033574 285.70146016 -35.109375 285.62890625 C-36.36621094 285.58378906 -37.62304688 285.53867187 -38.91796875 285.4921875 C-40.08054199 285.45029297 -41.24311523 285.40839844 -42.44091797 285.36523438 C-44.03947131 285.31277705 -45.63886743 285.2734375 -47.23828125 285.2734375 C-48.07488909 278.93912102 -48.65858227 272.65012626 -49.23828125 266.2734375 C-36.69828125 266.2734375 -24.15828125 266.2734375 -11.23828125 266.2734375 C-10.24828125 263.3034375 -9.25828125 260.3334375 -8.23828125 257.2734375 C-7.24828125 256.2834375 -6.25828125 255.2934375 -5.23828125 254.2734375 C-4.16734426 251.9154992 -4.16734426 251.9154992 -3.30078125 249.3359375 C-1.81116095 245.39786086 -0.39375758 243.1133662 2.76171875 240.2734375 C3.09171875 239.4071875 3.42171875 238.5409375 3.76171875 237.6484375 C5.01068287 234.68214771 5.9683242 234.67013478 8.76171875 233.2734375 C11.97128119 229.55477947 11.97128119 229.55477947 12.578125 224.90625 C11.61946911 221.81469941 10.24513196 219.60741201 8.38671875 216.9609375 C7.78085937 216.07792969 7.175 215.19492188 6.55078125 214.28515625 C5.96039063 213.62128906 5.37 212.95742187 4.76171875 212.2734375 C3.77171875 212.2734375 2.78171875 212.2734375 1.76171875 212.2734375 C1.40013672 211.03207031 1.40013672 211.03207031 1.03125 209.765625 C-0.17950112 206.43512809 -1.63210997 203.58813977 -3.36108398 200.51416016 C-18.88562121 172.90577936 -20.7224841 140.2300704 -12.375 109.9609375 C-10.70629274 104.54767409 -8.54472767 99.43929541 -6.23828125 94.2734375 C-5.45843628 92.36041974 -4.68699135 90.44394637 -3.92578125 88.5234375 C-3.59964844 87.70359375 -3.27351563 86.88375 -2.9375 86.0390625 C-2.70675781 85.45640625 -2.47601563 84.87375 -2.23828125 84.2734375 C-21.62010489 74.58252568 -49.53962638 77.75213292 -69.23828125 85.2734375 Z M15.76171875 92.2734375 C11.71007461 96.77526433 9.23309341 101.79992315 6.76171875 107.2734375 C6.46007812 107.93859375 6.1584375 108.60375 5.84765625 109.2890625 C3.47108374 115.38653136 3.00795947 121.77558217 2.4074707 128.2421875 C1.85242636 134.18272989 1.85242636 134.18272989 0.76171875 135.2734375 C-0.85873772 157.93326324 4.20504052 184.14742453 18.76171875 202.2734375 C19.75171875 202.2734375 20.74171875 202.2734375 21.76171875 202.2734375 C21.85453125 203.10875 21.85453125 203.10875 21.94921875 203.9609375 C23.0901002 207.20806163 25.31131597 208.91683004 27.76171875 211.2734375 C30.08062692 210.18130656 32.39121623 209.07568702 34.69921875 207.9609375 C35.68825195 207.4978418 35.68825195 207.4978418 36.69726562 207.02539062 C38.42447896 206.18392772 40.09777145 205.23396085 41.76171875 204.2734375 C42.25671875 202.7884375 42.25671875 202.7884375 42.76171875 201.2734375 C44.85213798 200.82793832 46.9451121 200.39238375 49.046875 200.00390625 C52.17727675 199.16162549 54.6716532 197.83113614 57.51171875 196.2734375 C62.93788326 193.41829091 67.76829886 192.35394249 73.82421875 191.640625 C77.31046439 191.20484429 80.42942677 190.35836977 83.76171875 189.2734375 C84.47413354 170.40672856 73.96501987 148.94732647 62.76171875 134.2734375 C59.76847612 135.3709598 58.91560974 135.95026642 57.51171875 138.8984375 C57.26421875 139.6821875 57.01671875 140.4659375 56.76171875 141.2734375 C55.77171875 141.2734375 54.78171875 141.2734375 53.76171875 141.2734375 C53.54773438 141.83804688 53.33375 142.40265625 53.11328125 142.984375 C51.2980089 146.0587958 48.9535502 147.72212586 46.13671875 149.8984375 C44.30965959 151.31217736 42.50786125 152.76089265 40.76171875 154.2734375 C40.76171875 154.9334375 40.76171875 155.5934375 40.76171875 156.2734375 C40.10171875 156.2734375 39.44171875 156.2734375 38.76171875 156.2734375 C38.76171875 157.2634375 38.76171875 158.2534375 38.76171875 159.2734375 C38.22546875 159.36882812 37.68921875 159.46421875 37.13671875 159.5625 C34.03754904 160.49021198 31.54313094 162.00045078 28.76171875 163.6484375 C27.73046875 164.25429687 26.69921875 164.86015625 25.63671875 165.484375 C22.81890615 167.16965165 22.81890615 167.16965165 20.58984375 168.95703125 C18.1008288 170.74933475 15.76658097 170.93197588 12.76171875 171.2734375 C12.70113281 170.65597656 12.64054687 170.03851563 12.578125 169.40234375 C12.0127529 163.68773654 11.40597291 157.97968861 10.76171875 152.2734375 C12.12296875 151.8403125 12.12296875 151.8403125 13.51171875 151.3984375 C16.08374783 150.50811974 18.37518641 149.55849337 20.76171875 148.2734375 C20.76171875 147.6134375 20.76171875 146.9534375 20.76171875 146.2734375 C21.75171875 146.2734375 22.74171875 146.2734375 23.76171875 146.2734375 C24.06722656 145.42652344 24.06722656 145.42652344 24.37890625 144.5625 C26.26675501 141.43741703 28.94453089 139.69636408 31.88671875 137.6484375 C33.90096738 136.23800253 35.83123931 134.80247167 37.76171875 133.2734375 C37.76171875 132.6134375 37.76171875 131.9534375 37.76171875 131.2734375 C38.42171875 131.2734375 39.08171875 131.2734375 39.76171875 131.2734375 C41.82057867 128.7472262 41.82057867 128.7472262 43.88671875 125.5859375 C44.61117187 124.53019531 45.335625 123.47445312 46.08203125 122.38671875 C47.76499588 119.26736337 48.15995405 117.73551531 47.76171875 114.2734375 C47.10171875 114.2734375 46.44171875 114.2734375 45.76171875 114.2734375 C45.76171875 113.6134375 45.76171875 112.9534375 45.76171875 112.2734375 C45.10171875 112.2734375 44.44171875 112.2734375 43.76171875 112.2734375 C43.76171875 111.6134375 43.76171875 110.9534375 43.76171875 110.2734375 C43.10171875 110.2734375 42.44171875 110.2734375 41.76171875 110.2734375 C41.54128906 109.6959375 41.32085937 109.1184375 41.09375 108.5234375 C39.34947917 105.5771032 37.25596225 104.21802839 34.44921875 102.2734375 C31.60394269 100.28601411 28.83441316 98.33449202 26.17578125 96.1015625 C23.81405521 94.31307094 22.31060488 93.60541434 19.44921875 93.0234375 C18.23234375 92.7759375 17.01546875 92.5284375 15.76171875 92.2734375 Z M-107.86328125 109.3359375 C-108.59417969 110.03009766 -109.32507813 110.72425781 -110.078125 111.43945312 C-111.10486328 112.45749023 -111.10486328 112.45749023 -112.15234375 113.49609375 C-112.77061035 114.10203369 -113.38887695 114.70797363 -114.02587891 115.33227539 C-115.49381215 117.2568036 -115.49381215 117.2568036 -115.04711914 119.83959961 C-112.60466388 127.18908241 -105.39588762 133.76787186 -99.23828125 138.2734375 C-98.57828125 138.6034375 -97.91828125 138.9334375 -97.23828125 139.2734375 C-96.90828125 140.2634375 -96.57828125 141.2534375 -96.23828125 142.2734375 C-94.58828125 142.6034375 -92.93828125 142.9334375 -91.23828125 143.2734375 C-91.23828125 144.2634375 -91.23828125 145.2534375 -91.23828125 146.2734375 C-90.49578125 146.5209375 -89.75328125 146.7684375 -88.98828125 147.0234375 C-86.00621232 148.37892338 -84.53237078 149.97934797 -82.23828125 152.2734375 C-79.27653564 153.71819145 -77.55094572 154.2734375 -74.23828125 154.2734375 C-73.50946124 133.19164394 -76.33471783 113.64229164 -87.23828125 95.2734375 C-95.22017127 95.2734375 -102.54936714 104.03686672 -107.86328125 109.3359375 Z M79.76171875 124.2734375 C81.15014516 128.10024461 82.94517988 131.2649555 85.19921875 134.6484375 C88.63957453 139.98027519 91.12290458 144.63146395 92.625 150.84375 C93.8454302 155.8137427 95.48411802 160.6206694 97.13671875 165.4609375 C99.82356704 173.36098478 102.30585874 181.29189248 104.76171875 189.2734375 C124.23171875 189.2734375 143.70171875 189.2734375 163.76171875 189.2734375 C162.5670437 178.52136201 161.09523306 169.33746459 154.0234375 160.9296875 C152.41014912 158.81193433 151.92677226 156.9142937 151.76171875 154.2734375 C150.77171875 154.2734375 149.78171875 154.2734375 148.76171875 154.2734375 C148.62056641 153.41105469 148.62056641 153.41105469 148.4765625 152.53125 C147.59900144 149.75949978 146.2797541 148.28692315 144.32421875 146.1484375 C143.70675781 145.46523437 143.08929688 144.78203125 142.453125 144.078125 C140.02681542 141.48931431 138.76645577 140.2753674 135.38671875 138.8984375 C131.76171875 137.2734375 131.76171875 137.2734375 129.8359375 135.328125 C120.85207253 126.42885386 104.97775829 124.09925696 92.86254883 124.00317383 C88.49322995 124.03231432 84.12835328 124.11784959 79.76171875 124.2734375 Z M-129.23828125 136.2734375 C-136.58269483 148.59309899 -141.97849562 160.86011046 -146.11328125 174.6015625 C-146.95555269 177.35064289 -147.86193904 180.01983031 -148.86328125 182.7109375 C-154.65254637 199.94715867 -156.70677788 222.43545485 -153.23828125 240.2734375 C-140.23162202 237.5538633 -129.62624295 233.22453101 -118.23828125 226.2734375 C-119.69113021 222.45869442 -121.39959966 221.34538846 -125.05078125 219.6484375 C-125.90285156 219.24367188 -126.75492188 218.83890625 -127.6328125 218.421875 C-132.74441671 216.03941238 -132.74441671 216.03941238 -138.23828125 215.2734375 C-138.23828125 214.6134375 -138.23828125 213.9534375 -138.23828125 213.2734375 C-139.55828125 213.2734375 -140.87828125 213.2734375 -142.23828125 213.2734375 C-142.09708109 210.68977505 -141.95049792 208.10660865 -141.80078125 205.5234375 C-141.76146484 204.79382813 -141.72214844 204.06421875 -141.68164062 203.3125 C-141.47681027 199.8461402 -141.15308105 196.62010724 -140.23828125 193.2734375 C-139.16578125 193.6034375 -138.09328125 193.9334375 -136.98828125 194.2734375 C-133.24096524 195.4452126 -133.24096524 195.4452126 -129.23828125 195.2734375 C-129.23828125 195.9334375 -129.23828125 196.5934375 -129.23828125 197.2734375 C-127.63795988 198.11413165 -126.03286954 198.94575255 -124.42578125 199.7734375 C-123.08580078 200.46953125 -123.08580078 200.46953125 -121.71875 201.1796875 C-119.23260099 202.47516891 -119.23260099 202.47516891 -116.23828125 202.2734375 C-116.23828125 202.9334375 -116.23828125 203.5934375 -116.23828125 204.2734375 C-114.49423337 205.28378248 -112.74278564 206.28136172 -110.98828125 207.2734375 C-110.01375 207.8303125 -109.03921875 208.3871875 -108.03515625 208.9609375 C-105.14968436 210.55665254 -105.14968436 210.55665254 -101.23828125 210.2734375 C-91.61728917 204.23673659 -86.24060067 191.59587523 -82.23828125 181.2734375 C-82.23828125 180.2834375 -82.23828125 179.2934375 -82.23828125 178.2734375 C-81.57828125 178.2734375 -80.91828125 178.2734375 -80.23828125 178.2734375 C-80.23828125 176.6234375 -80.23828125 174.9734375 -80.23828125 173.2734375 C-83.20828125 172.2834375 -86.17828125 171.2934375 -89.23828125 170.2734375 C-89.23828125 169.6134375 -89.23828125 168.9534375 -89.23828125 168.2734375 C-91.03403879 166.99424116 -91.03403879 166.99424116 -93.359375 165.77734375 C-94.21208984 165.30103516 -95.06480469 164.82472656 -95.94335938 164.33398438 C-97.76032434 163.33783561 -99.57802988 162.34303642 -101.39648438 161.34960938 C-102.25048828 160.87201172 -103.10449219 160.39441406 -103.984375 159.90234375 C-104.77513428 159.46994385 -105.56589355 159.03754395 -106.38061523 158.59204102 C-108.23828125 157.2734375 -108.23828125 157.2734375 -109.23828125 154.2734375 C-110.22828125 154.2734375 -111.21828125 154.2734375 -112.23828125 154.2734375 C-112.50640625 153.69078125 -112.77453125 153.108125 -113.05078125 152.5078125 C-114.25309116 150.24557149 -115.57654038 148.46767432 -117.23828125 146.5234375 C-117.75390625 145.90984375 -118.26953125 145.29625 -118.80078125 144.6640625 C-120.14451377 143.04167374 -120.14451377 143.04167374 -122.23828125 143.2734375 C-122.23828125 142.6134375 -122.23828125 141.9534375 -122.23828125 141.2734375 C-123.22828125 141.2734375 -124.21828125 141.2734375 -125.23828125 141.2734375 C-125.56828125 139.6234375 -125.89828125 137.9734375 -126.23828125 136.2734375 C-127.22828125 136.2734375 -128.21828125 136.2734375 -129.23828125 136.2734375 Z M72.13671875 210.8984375 C71.35200195 211.16769043 70.56728516 211.43694336 69.75878906 211.71435547 C60.65531606 214.90780778 51.55428147 218.48467662 43.76171875 224.2734375 C46.10704799 226.22787853 48.2736098 228.02938303 51.01171875 229.3984375 C52.76171875 230.2734375 52.76171875 230.2734375 53.76171875 232.2734375 C57.10682227 233.90078516 58.95007709 234.2734375 62.76171875 234.2734375 C62.76171875 234.9334375 62.76171875 235.5934375 62.76171875 236.2734375 C65.23773505 237.0967509 67.71687361 237.90710941 70.19921875 238.7109375 C70.88693359 238.94103516 71.57464844 239.17113281 72.28320312 239.40820312 C77.45115996 241.06675671 82.35266879 241.80980465 87.76171875 242.2734375 C87.95926343 237.7321495 88.1429876 233.19040347 88.32421875 228.6484375 C88.38029297 227.36324219 88.43636719 226.07804687 88.49414062 224.75390625 C88.56665039 222.88798828 88.56665039 222.88798828 88.640625 220.984375 C88.68775635 219.84274902 88.7348877 218.70112305 88.78344727 217.52490234 C88.76207065 214.32609564 88.3781092 211.40727446 87.76171875 208.2734375 C82.00369182 207.95439115 77.55202984 208.99736725 72.13671875 210.8984375 Z M-104.23828125 238.2734375 C-104.23828125 239.2634375 -104.23828125 240.2534375 -104.23828125 241.2734375 C-104.86476562 241.50546875 -105.49125 241.7375 -106.13671875 241.9765625 C-108.70615042 243.05093443 -111.1623916 244.20397519 -113.65234375 245.4453125 C-125.27244482 251.21444324 -136.7499491 255.76243212 -149.23828125 259.2734375 C-148.70923704 265.45170097 -147.69198532 270.91834927 -145.67578125 276.7734375 C-145.28531616 277.92477173 -145.28531616 277.92477173 -144.88696289 279.09936523 C-140.83839011 290.66587169 -135.39552135 301.69068107 -129.23828125 312.2734375 C-128.24828125 312.2734375 -127.25828125 312.2734375 -126.23828125 312.2734375 C-125.90828125 310.9534375 -125.57828125 309.6334375 -125.23828125 308.2734375 C-124.24828125 308.2734375 -123.25828125 308.2734375 -122.23828125 308.2734375 C-122.23828125 307.2834375 -122.23828125 306.2934375 -122.23828125 305.2734375 C-121.67625 305.02464844 -121.11421875 304.77585937 -120.53515625 304.51953125 C-117.86116266 303.06884425 -115.77408587 301.341619 -113.48828125 299.3359375 C-112.6890625 298.64628906 -111.88984375 297.95664062 -111.06640625 297.24609375 C-108.89841797 295.3549548 -108.89841797 295.3549548 -109.23828125 292.2734375 C-108.55765625 292.0671875 -107.87703125 291.8609375 -107.17578125 291.6484375 C-104.47169378 290.38269443 -102.92475341 289.23504272 -100.73828125 287.2734375 C-96.21955902 283.26221755 -92.20216048 282.1056067 -86.23828125 281.2734375 C-86.09390625 281.8715625 -85.94953125 282.4696875 -85.80078125 283.0859375 C-85.35103735 284.83494154 -84.80935784 286.56020773 -84.23828125 288.2734375 C-84.01502311 290.33237371 -83.83122366 292.39577403 -83.67578125 294.4609375 C-83.59199219 295.54761719 -83.50820312 296.63429688 -83.421875 297.75390625 C-83.36128906 298.58535156 -83.30070312 299.41679687 -83.23828125 300.2734375 C-84.12515625 300.5209375 -85.01203125 300.7684375 -85.92578125 301.0234375 C-90.3237819 302.68306039 -93.11513722 305.11725982 -96.36328125 308.4609375 C-98.23828125 310.2734375 -98.23828125 310.2734375 -101.23828125 311.2734375 C-101.56828125 311.9334375 -101.89828125 312.5934375 -102.23828125 313.2734375 C-102.56828125 313.9334375 -102.89828125 314.5934375 -103.23828125 315.2734375 C-104.22828125 315.6034375 -105.21828125 315.9334375 -106.23828125 316.2734375 C-108.41018719 318.63680492 -108.41018719 318.63680492 -110.48828125 321.5234375 C-111.2153125 322.47734375 -111.94234375 323.43125 -112.69140625 324.4140625 C-114.39405441 327.08991761 -114.39405441 327.08991761 -114.40625 329.703125 C-112.58084676 333.72023314 -109.55346362 336.23543523 -106.30078125 339.1484375 C-105.6250708 339.76541504 -104.94936035 340.38239258 -104.25317383 341.01806641 C-96.15016976 349.15597439 -96.15016976 349.15597439 -86.23828125 353.2734375 C-81.05200207 343.13397033 -77.52165677 333.45706709 -75.23828125 322.2734375 C-75.04234375 321.35175781 -74.84640625 320.43007813 -74.64453125 319.48046875 C-74.05486915 314.82554007 -74.09404601 310.21042449 -74.11328125 305.5234375 C-74.10941406 304.56566406 -74.10554688 303.60789062 -74.1015625 302.62109375 C-74.10285156 301.70714844 -74.10414063 300.79320312 -74.10546875 299.8515625 C-74.10716064 298.60487793 -74.10716064 298.60487793 -74.10888672 297.33300781 C-74.10783507 295.20912078 -74.10783507 295.20912078 -75.23828125 293.2734375 C-75.48364649 291.23365417 -75.70937527 289.19149614 -75.92578125 287.1484375 C-76.71635713 281.38258335 -78.0664646 276.21762642 -80.11328125 270.7734375 C-80.35780029 270.11585449 -80.60231934 269.45827148 -80.85424805 268.78076172 C-82.5157536 264.54843137 -84.65121948 260.99590314 -87.23828125 257.2734375 C-88.02728591 255.82485482 -88.80001781 254.36720379 -89.55078125 252.8984375 C-92.66608465 247.23337808 -96.31653576 241.76539264 -102.17578125 238.7734375 C-102.85640625 238.6084375 -103.53703125 238.4434375 -104.23828125 238.2734375 Z M27.76171875 238.2734375 C27.76171875 238.9334375 27.76171875 239.5934375 27.76171875 240.2734375 C26.92060547 240.31597656 26.92060547 240.31597656 26.0625 240.359375 C22.48357842 241.7812216 20.95455052 244.7714729 18.94921875 247.8984375 C18.51561035 248.56125732 18.08200195 249.22407715 17.63525391 249.90698242 C10.22858181 260.91295417 10.22858181 260.91295417 6.76171875 273.2734375 C8.41107422 274.03527344 8.41107422 274.03527344 10.09375 274.8125 C33.90633849 285.86911534 33.90633849 285.86911534 39.76171875 292.2734375 C40.75171875 292.6034375 41.74171875 292.9334375 42.76171875 293.2734375 C42.76171875 293.9334375 42.76171875 294.5934375 42.76171875 295.2734375 C43.42171875 295.2734375 44.08171875 295.2734375 44.76171875 295.2734375 C44.96796875 295.8509375 45.17421875 296.4284375 45.38671875 297.0234375 C47.25922763 300.08754294 49.73130394 301.42883718 52.76171875 303.2734375 C52.51737416 309.13770777 50.78444732 312.08856963 47.0390625 316.57421875 C45.56142486 318.18558641 45.56142486 318.18558641 45.76171875 320.2734375 C40.80906362 317.63983384 37.0133979 314.89168259 32.94921875 310.9609375 C24.97844214 303.46785726 17.64759373 297.70538829 6.76171875 295.2734375 C6.76171875 294.6134375 6.76171875 293.9534375 6.76171875 293.2734375 C5.44171875 292.9434375 4.12171875 292.6134375 2.76171875 292.2734375 C0.30679141 296.03376271 0.45473855 299.81359608 0.51171875 304.1484375 C0.51993652 304.90584229 0.5281543 305.66324707 0.53662109 306.44360352 C0.87269012 323.6572037 5.23342176 340.2545782 13.76171875 355.2734375 C27.83911557 352.99545874 38.12796731 342.93865986 46.76171875 332.2734375 C47.56609375 331.6753125 48.37046875 331.0771875 49.19921875 330.4609375 C52.30849633 327.80667615 54.11369004 324.85332609 56.296875 321.42578125 C57.76171875 319.2734375 57.76171875 319.2734375 60.19921875 316.8984375 C66.52285073 310.42057059 70.30363925 303.24060981 72.05859375 294.390625 C72.290625 293.69195312 72.52265625 292.99328125 72.76171875 292.2734375 C73.75171875 291.9434375 74.74171875 291.6134375 75.76171875 291.2734375 C76.42171875 287.6434375 77.08171875 284.0134375 77.76171875 280.2734375 C78.42171875 280.2734375 79.08171875 280.2734375 79.76171875 280.2734375 C80.43840824 278.06815478 81.10265373 275.85905141 81.76171875 273.6484375 C82.31859375 271.80378906 82.31859375 271.80378906 82.88671875 269.921875 C83.99493419 265.92632836 83.99493419 265.92632836 83.76171875 260.2734375 C77.49171875 259.6134375 71.22171875 258.9534375 64.76171875 258.2734375 C64.26671875 256.7884375 64.26671875 256.7884375 63.76171875 255.2734375 C61.46997749 254.32007313 59.24365256 253.52901893 56.88671875 252.7734375 C47.33012837 249.49204396 38.94717618 244.45282116 30.36547852 239.18798828 C28.92463811 238.19087588 28.92463811 238.19087588 27.76171875 238.2734375 Z M-170.23828125 268.2734375 C-170.23828125 268.9334375 -170.23828125 269.5934375 -170.23828125 270.2734375 C-170.89828125 270.2734375 -171.55828125 270.2734375 -172.23828125 270.2734375 C-172.46515625 270.8509375 -172.69203125 271.4284375 -172.92578125 272.0234375 C-174.56109194 274.82682726 -176.71054853 276.27785904 -179.23828125 278.2734375 C-179.23828125 278.9334375 -179.23828125 279.5934375 -179.23828125 280.2734375 C-179.89828125 280.2734375 -180.55828125 280.2734375 -181.23828125 280.2734375 C-193.06139362 299.67252478 -198.17887052 319.4864395 -193.37109375 342.125 C-191.43838422 349.75529252 -188.26792839 357.02718556 -185.23828125 364.2734375 C-184.24828125 364.2734375 -183.25828125 364.2734375 -182.23828125 364.2734375 C-181.90828125 365.9234375 -181.57828125 367.5734375 -181.23828125 369.2734375 C-175.91351868 368.93755266 -173.43295365 366.03771481 -169.92578125 362.3984375 C-169.37599609 361.85574219 -168.82621094 361.31304687 -168.25976562 360.75390625 C-164.95992769 357.60559027 -164.95992769 357.60559027 -164.23828125 353.2734375 C-163.24828125 353.2734375 -162.25828125 353.2734375 -161.23828125 353.2734375 C-161.23828125 352.6134375 -161.23828125 351.9534375 -161.23828125 351.2734375 C-160.57828125 351.2734375 -159.91828125 351.2734375 -159.23828125 351.2734375 C-159.23828125 350.6134375 -159.23828125 349.9534375 -159.23828125 349.2734375 C-158.57828125 349.2734375 -157.91828125 349.2734375 -157.23828125 349.2734375 C-157.23828125 348.2834375 -157.23828125 347.2934375 -157.23828125 346.2734375 C-156.24828125 346.2734375 -155.25828125 346.2734375 -154.23828125 346.2734375 C-152.53358268 344.7496658 -152.53358268 344.7496658 -150.92578125 342.7109375 C-147.26202987 338.29884541 -147.26202987 338.29884541 -145.44921875 336.359375 C-144.63324219 335.48152344 -144.63324219 335.48152344 -143.80078125 334.5859375 C-143.30707031 334.06644531 -142.81335938 333.54695313 -142.3046875 333.01171875 C-140.79401614 330.5492691 -140.83944896 329.12823708 -141.23828125 326.2734375 C-142.66489334 323.3115236 -142.66489334 323.3115236 -144.61328125 320.4609375 C-145.23976562 319.48511719 -145.86625 318.50929688 -146.51171875 317.50390625 C-147.08148438 316.76785156 -147.65125 316.03179687 -148.23828125 315.2734375 C-148.89828125 315.2734375 -149.55828125 315.2734375 -150.23828125 315.2734375 C-150.73328125 313.38625 -150.73328125 313.38625 -151.23828125 311.4609375 C-153.1063361 305.18319547 -155.69373349 299.23394316 -158.28125 293.22729492 C-160.40850497 288.286623 -162.388699 283.32510903 -164.23828125 278.2734375 C-164.89828125 278.2734375 -165.55828125 278.2734375 -166.23828125 278.2734375 C-166.56828125 274.6434375 -166.89828125 271.0134375 -167.23828125 267.2734375 C-168.46188805 267.1989019 -168.46188805 267.1989019 -170.23828125 268.2734375 Z M-55.23828125 386.2734375 C-52.27408515 392.94287872 -49.23667487 399.22305536 -45.73828125 405.5859375 C-45.26519531 406.46572266 -44.79210937 407.34550781 -44.3046875 408.25195312 C-41.02224577 414.34460454 -41.02224577 414.34460454 -36.23828125 419.2734375 C-33.78195793 420.02364994 -33.78195793 420.02364994 -31.23828125 419.2734375 C-26.66539007 415.76400939 -25.40665981 412.69046539 -24.23828125 407.2734375 C-23.57828125 407.2734375 -22.91828125 407.2734375 -22.23828125 407.2734375 C-20.93684579 405.09126316 -19.64720698 402.90338508 -18.36328125 400.7109375 C-17.99847656 400.10185547 -17.63367188 399.49277344 -17.2578125 398.86523438 C-16.90332031 398.25615234 -16.54882812 397.64707031 -16.18359375 397.01953125 C-15.85891113 396.46966553 -15.53422852 395.9197998 -15.19970703 395.35327148 C-13.86390462 392.46355571 -13.11286257 389.3344721 -12.23828125 386.2734375 C-26.42828125 386.2734375 -40.61828125 386.2734375 -55.23828125 386.2734375 Z " fill="#F4F8F6" transform="translate(282.23828125,30.7265625)"/>
<path d="M0 0 C0.33 0 0.66 0 1 0 C1.08121924 1.60332791 1.13929134 3.20784026 1.1875 4.8125 C1.23970703 6.15248047 1.23970703 6.15248047 1.29296875 7.51953125 C1 10 1 10 -0.05517578 11.63452148 C-2.99368348 13.69767408 -5.95172666 13.38824978 -9.41015625 13.328125 C-10.15811966 13.32661438 -10.90608307 13.32510376 -11.67671204 13.32354736 C-14.1389913 13.31412878 -16.60042589 13.28251359 -19.0625 13.25 C-20.76317766 13.23805595 -22.46386176 13.22699737 -24.16455078 13.21679688 C-40.78237149 13.09027417 -57.39346324 12.60539634 -74 12 C-74 11.67 -74 11.34 -74 11 C-73.37376236 10.98969254 -72.74752472 10.97938507 -72.10231018 10.96876526 C-65.49806033 10.85935497 -58.89391089 10.74489259 -52.28979492 10.62768555 C-49.83538951 10.58476118 -47.3809623 10.5430629 -44.92651367 10.50268555 C-31.26197351 10.27703259 -17.63328938 9.9865161 -4 9 C-2.68 6.03 -1.36 3.06 0 0 Z " fill="#8BC3AB" transform="translate(467,226)"/>
<path d="M0 0 C1.16917969 -0.00386719 2.33835938 -0.00773438 3.54296875 -0.01171875 C4.65542969 -0.01042969 5.76789063 -0.00914062 6.9140625 -0.0078125 C8.41767334 -0.00612061 8.41767334 -0.00612061 9.95166016 -0.00439453 C12.375 0.125 12.375 0.125 14.375 1.125 C14.375 1.785 14.375 2.445 14.375 3.125 C1.28924998 4.2530819 -11.52370557 3.93114913 -24.625 3.125 C-24.955 2.465 -25.285 1.805 -25.625 1.125 C-17.06564715 0.27003848 -8.5993204 -0.02941615 0 0 Z " fill="#7DC19A" transform="translate(138.625,134.875)"/>
<path d="M0 0 C2 2 2 2 2 4.4375 C0.58118426 8.07321532 -1.50887409 8.25443705 -5 10 C-11.14239323 15.19519411 -11.14239323 15.19519411 -15 22 C-15.99 22.66 -16.98 23.32 -18 24 C-18.33 24.99 -18.66 25.98 -19 27 C-21.0625 28.1875 -21.0625 28.1875 -23 29 C-21.61947454 24.89494546 -19.74883732 22.28876448 -16.8125 19.125 C-16.00941406 18.25488281 -15.20632812 17.38476562 -14.37890625 16.48828125 C-12.37092631 14.38798039 -10.33155463 12.33915648 -8.25 10.3125 C-5.0184748 7.14876903 -2.52416879 3.74800821 0 0 Z " fill="#98CAB3" transform="translate(108,274)"/>
<path d="M0 0 C0.33 0 0.66 0 1 0 C1 8.58 1 17.16 1 26 C1.66 26 2.32 26 3 26 C2.67 26.99 2.34 27.98 2 29 C1.01 29.33 0.02 29.66 -1 30 C-2.36328411 27.27343178 -2.03049342 25.23219148 -1.9140625 22.1875 C-1.87023437 21.02992188 -1.82640625 19.87234375 -1.78125 18.6796875 C-1.7296875 17.46539062 -1.678125 16.25109375 -1.625 15 C-1.55925781 13.17855469 -1.55925781 13.17855469 -1.4921875 11.3203125 C-1.12887788 2.25775575 -1.12887788 2.25775575 0 0 Z " fill="#9DCCB5" transform="translate(371,245)"/>
<path d="M0 0 C0.33 0 0.66 0 1 0 C1.18944341 5.39913721 1.09487171 9.91245442 -1 15 C-3.625 16.9375 -3.625 16.9375 -6 18 C-6.33 17.34 -6.66 16.68 -7 16 C-5.92664301 13.23325418 -4.79739939 10.56805742 -3.5625 7.875 C-3.22412109 7.12089844 -2.88574219 6.36679687 -2.53710938 5.58984375 C-1.69839399 3.72340669 -0.85008607 1.8612857 0 0 Z " fill="#87BDA6" transform="translate(405,377)"/>
<path d="M0 0 C3.458176 -0.0868329 6.91607344 -0.14033282 10.375 -0.1875 C11.35984375 -0.21263672 12.3446875 -0.23777344 13.359375 -0.26367188 C14.77089844 -0.27817383 14.77089844 -0.27817383 16.2109375 -0.29296875 C17.08024902 -0.3086792 17.94956055 -0.32438965 18.84521484 -0.34057617 C19.55629395 -0.22818604 20.26737305 -0.1157959 21 0 C21.66 0.99 22.32 1.98 23 3 C22.01 3 21.02 3 20 3 C20 5.31 20 7.62 20 10 C19.67 10 19.34 10 19 10 C19 7.36 19 4.72 19 2 C12.73 2 6.46 2 0 2 C0 1.34 0 0.68 0 0 Z " fill="#82C1A3" transform="translate(246,315)"/>
<path d="M0 0 C1.32 0.33 2.64 0.66 4 1 C2.8553125 1.6496875 2.8553125 1.6496875 1.6875 2.3125 C-0.66872158 3.79198797 -2.26711957 4.86493242 -4 7 C-4.43290461 9.33518739 -4.50032074 11.57063884 -4.59375 13.94140625 C-4.7278125 14.62074219 -4.861875 15.30007813 -5 16 C-5.99 16.66 -6.98 17.32 -8 18 C-9.65347492 16.34652508 -9.62349804 14.4229703 -9.6328125 12.1875 C-8.1927474 7.20949717 -3.60347598 3.55342771 0 0 Z " fill="#8DC7AE" transform="translate(361,371)"/>
<path d="M0 0 C-1.98 0.99 -1.98 0.99 -4 2 C-4 2.99 -4 3.98 -4 5 C-10.435 5.495 -10.435 5.495 -17 6 C-11.22952151 0.22952151 -7.81586459 -0.26494456 0 0 Z " fill="#84BDA3" transform="translate(354,223)"/>
<path d="M0 0 C0.66 0.33 1.32 0.66 2 1 C0.625 3.5 0.625 3.5 -1 6 C-1.66 6 -2.32 6 -3 6 C-3.0825 6.78375 -3.165 7.5675 -3.25 8.375 C-4 11 -4 11 -5.8125 12.375 C-8.30534286 13.08724082 -9.58716168 12.86172797 -12 12 C-11.01 12 -10.02 12 -9 12 C-8.7215625 10.9790625 -8.7215625 10.9790625 -8.4375 9.9375 C-6.41917747 5.81310179 -3.33712607 3.09621055 0 0 Z " fill="#88C0A5" transform="translate(165,122)"/>
<path d="M0 0 C0.66 1.32 1.32 2.64 2 4 C4.31 4 6.62 4 9 4 C8.67 5.32 8.34 6.64 8 8 C6.39566191 7.52140759 4.79153584 7.04210442 3.1875 6.5625 C2.29417969 6.29566406 1.40085938 6.02882812 0.48046875 5.75390625 C-1.35473055 5.19612127 -3.18033726 4.60655425 -5 4 C-5 3.34 -5 2.68 -5 2 C-3.68 2 -2.36 2 -1 2 C-0.67 1.34 -0.34 0.68 0 0 Z " fill="#80BEA4" transform="translate(149,242)"/>
<path d="M0 0 C0.33 0 0.66 0 1 0 C1.19818283 6.70518586 1.30844801 12.65176798 -1 19 C-1.33 19 -1.66 19 -2 19 C-2 14.05 -2 9.1 -2 4 C-1.34 4 -0.68 4 0 4 C0 2.68 0 1.36 0 0 Z " fill="#84C1A3" transform="translate(285,147)"/>
<path d="M0 0 C3 1 3 1 4.1875 2.625 C5.27499354 5.80382728 5.1282071 8.66661533 5 12 C5.66 12 6.32 12 7 12 C6.34 13.32 5.68 14.64 5 16 C4.1605118 13.89828133 3.32860344 11.79353375 2.5 9.6875 C2.0359375 8.51574219 1.571875 7.34398437 1.09375 6.13671875 C0 3 0 3 0 0 Z " fill="#82BEA5" transform="translate(72,382)"/>
<path d="M0 0 C1.88188242 3.76376485 2.27404264 5.077433 2.25 9.0625 C2.25515625 9.91972656 2.2603125 10.77695312 2.265625 11.66015625 C2 14 2 14 0 17 C-0.66 16.67 -1.32 16.34 -2 16 C-1.34 10.72 -0.68 5.44 0 0 Z " fill="#87BFA7" transform="translate(408,361)"/>
<path d="M0 0 C-1.33333333 0.66666667 -2.66666667 1.33333333 -4 2 C-4.928125 2.53625 -5.85625 3.0725 -6.8125 3.625 C-10.44279374 5.19100906 -13.08706743 5.23477595 -17 5 C-12.06033192 0.65309209 -6.43314933 -0.31381216 0 0 Z " fill="#7ABA9E" transform="translate(240,18)"/>
<path d="M0 0 C0.66 0.66 1.32 1.32 2 2 C1.01 2.495 1.01 2.495 0 3 C-0.680625 4.2065625 -0.680625 4.2065625 -1.375 5.4375 C-3.07868328 8.12407748 -4.08653091 8.89489103 -7 10 C-7.33 9.34 -7.66 8.68 -8 8 C-7.04578192 6.85073734 -6.08647955 5.70569459 -5.125 4.5625 C-4.59132813 3.92441406 -4.05765625 3.28632813 -3.5078125 2.62890625 C-2 1 -2 1 0 0 Z " fill="#8AC5B0" transform="translate(331,361)"/>
<path d="M0 0 C0.6875 1.625 0.6875 1.625 1 4 C-0.4375 7.25 -0.4375 7.25 -2 10 C-2.66 10 -3.32 10 -4 10 C-4.33 10.66 -4.66 11.32 -5 12 C-4.10164835 4.21428571 -4.10164835 4.21428571 -2 1 C-1.34 0.67 -0.68 0.34 0 0 Z " fill="#8AC3A8" transform="translate(357,322)"/>
<path d="M0 0 C2.475 0.495 2.475 0.495 5 1 C5 2.32 5 3.64 5 5 C6.98 5 8.96 5 11 5 C11.33 6.65 11.66 8.3 12 10 C9.0280615 8.87548273 6.66559313 7.77706209 4 6 C4 5.01 4 4.02 4 3 C3.01 3 2.02 3 1 3 C0.67 2.01 0.34 1.02 0 0 Z " fill="#86BDA4" transform="translate(169,182)"/>
<path d="M0 0 C-0.33 1.65 -0.66 3.3 -1 5 C-1.639375 5.12375 -2.27875 5.2475 -2.9375 5.375 C-3.618125 5.58125 -4.29875 5.7875 -5 6 C-5.33 6.66 -5.66 7.32 -6 8 C-5.125 3.25 -5.125 3.25 -4 1 C-6.64 1 -9.28 1 -12 1 C-12 0.67 -12 0.34 -12 0 C-10.37585622 -0.19477739 -8.75063577 -0.38059458 -7.125 -0.5625 C-6.22007812 -0.66691406 -5.31515625 -0.77132813 -4.3828125 -0.87890625 C-2 -1 -2 -1 0 0 Z " fill="#77BC9D" transform="translate(274,416)"/>
<path d="M0 0 C1.32 0.33 2.64 0.66 4 1 C2.1875 4 2.1875 4 0 7 C-0.99 7 -1.98 7 -3 7 C-3.66 8.65 -4.32 10.3 -5 12 C-5.66 11.67 -6.32 11.34 -7 11 C-6.67 10.01 -6.34 9.02 -6 8 C-5.34 8 -4.68 8 -4 8 C-3.67 6.68 -3.34 5.36 -3 4 C-2.01 4 -1.02 4 0 4 C0 2.68 0 1.36 0 0 Z " fill="#81BEA3" transform="translate(339,165)"/>
<path d="M0 0 C-2.1875 2.5625 -2.1875 2.5625 -5 5 C-7.8125 4.8125 -7.8125 4.8125 -10 4 C-10 3.34 -10 2.68 -10 2 C-3.375 -1.125 -3.375 -1.125 0 0 Z " fill="#85C0A5" transform="translate(306,384)"/>
<path d="M0 0 C0.969375 0.309375 1.93875 0.61875 2.9375 0.9375 C7.23664491 2.17967097 11.55342634 2.61684853 16 3 C16 3.33 16 3.66 16 4 C10.39 4 4.78 4 -1 4 C-1.33 3.34 -1.66 2.68 -2 2 C-1.34 2 -0.68 2 0 2 C0 1.34 0 0.68 0 0 Z " fill="#7BBA9F" transform="translate(236,34)"/>
<path d="M0 0 C0.66 0.33 1.32 0.66 2 1 C-0.79716804 4.29078593 -4.19528578 6.06305458 -8 8 C-8.66 7.67 -9.32 7.34 -10 7 C-8.90081184 6.01524786 -7.7954398 5.03739527 -6.6875 4.0625 C-6.07261719 3.51722656 -5.45773438 2.97195313 -4.82421875 2.41015625 C-3 1 -3 1 0 0 Z " fill="#8AC1A7" transform="translate(188,313)"/>
<path d="M0 0 C0.66 0.66 1.32 1.32 2 2 C1.625 4.625 1.625 4.625 1 7 C-0.98 7.33 -2.96 7.66 -5 8 C-3.38731308 5.28775382 -1.75098126 2.62647188 0 0 Z " fill="#85BEA5" transform="translate(108,274)"/>
<path d="M0 0 C0.66 0.33 1.32 0.66 2 1 C0.25 4.875 0.25 4.875 -2 6 C-3.99960012 6.039992 -6.00047242 6.04346799 -8 6 C-3.375 1.125 -3.375 1.125 0 0 Z " fill="#81BBA3" transform="translate(318,237)"/>
<path d="M0 0 C0.33 0 0.66 0 1 0 C1 1.98 1 3.96 1 6 C3.64 5.34 6.28 4.68 9 4 C8.34 5.32 7.68 6.64 7 8 C4.69 8 2.38 8 0 8 C0 5.36 0 2.72 0 0 Z " fill="#8CC1AB" transform="translate(128,265)"/>
<path d="M0 0 C0.99 0.33 1.98 0.66 3 1 C1.87548273 3.9719385 0.77706209 6.33440687 -1 9 C-2 8 -2 8 -2.1875 5.0625 C-2 2 -2 2 0 0 Z " fill="#80B99E" transform="translate(285,426)"/>
<path d="M0 0 C1.485 0.99 1.485 0.99 3 2 C3.29296875 4.1640625 3.29296875 4.1640625 3.1875 6.625 C3.16042969 7.44226563 3.13335937 8.25953125 3.10546875 9.1015625 C3.07066406 9.72804688 3.03585938 10.35453125 3 11 C2.34 11 1.68 11 1 11 C-0.17571451 7.32589215 -0.07366746 3.83070817 0 0 Z " fill="#89BFA7" transform="translate(115,298)"/>
<path d="M0 0 C1.32 0 2.64 0 4 0 C4 0.66 4 1.32 4 2 C3.34 2 2.68 2 2 2 C1.7525 2.78375 1.505 3.5675 1.25 4.375 C-0.15389099 7.32317108 -1.00675737 7.9024777 -4 9 C-3.71125 8.443125 -3.4225 7.88625 -3.125 7.3125 C-1.9586747 4.91505355 -0.9660119 2.48403061 0 0 Z " fill="#86BEA6" transform="translate(108,299)"/>
<path d="M0 0 C0.66 0.33 1.32 0.66 2 1 C-0.49272439 4.20493136 -2.97681337 7.27913203 -6 10 C-6.66 10 -7.32 10 -8 10 C-7.44449305 6.40094092 -6.25112752 5.00090201 -3.4375 2.75 C-2.79683594 2.22921875 -2.15617187 1.7084375 -1.49609375 1.171875 C-1.00238281 0.78515625 -0.50867188 0.3984375 0 0 Z " fill="#8CC3AC" transform="translate(314,167)"/>
<path d="M0 0 C1.4540625 0.0309375 1.4540625 0.0309375 2.9375 0.0625 C2.9375 1.0525 2.9375 2.0425 2.9375 3.0625 C1.125 3.75 1.125 3.75 -1.0625 4.0625 C-2.8125 2.625 -2.8125 2.625 -4.0625 1.0625 C-3.0625 0.0625 -3.0625 0.0625 0 0 Z " fill="#86BEA6" transform="translate(103.0625,424.9375)"/>
<path d="M0 0 C0.99 0.33 1.98 0.66 3 1 C3.33 2.98 3.66 4.96 4 7 C1.69 7.33 -0.62 7.66 -3 8 C-1.68 7.34 -0.36 6.68 1 6 C0.67 4.02 0.34 2.04 0 0 Z " fill="#82BAA1" transform="translate(277,389)"/>
<path d="M0 0 C1.98 0 3.96 0 6 0 C6 0.99 6 1.98 6 3 C6.99 3.33 7.98 3.66 9 4 C6 5 6 5 2.8125 3.5625 C1.884375 3.046875 0.95625 2.53125 0 2 C0 1.34 0 0.68 0 0 Z " fill="#86BEA8" transform="translate(193,199)"/>
<path d="M0 0 C1.32 0 2.64 0 4 0 C4 1.32 4 2.64 4 4 C4.99 4 5.98 4 7 4 C6.67 4.99 6.34 5.98 6 7 C5.01 6.67 4.02 6.34 3 6 C3 5.01 3 4.02 3 3 C2.01 2.67 1.02 2.34 0 2 C0 1.34 0 0.68 0 0 Z " fill="#90C3AD" transform="translate(230,460)"/>
<path d="M0 0 C1.32 0.33 2.64 0.66 4 1 C4.33 3.64 4.66 6.28 5 9 C1.7457985 6.16569547 0.4793247 4.31392226 0 0 Z " fill="#85BDA2" transform="translate(194,285)"/>
<path d="M0 0 C0.66 0.33 1.32 0.66 2 1 C-0.48908945 5.84717418 -3.24222524 7.62111262 -8 10 C-6.34908222 5.70761377 -3.26245434 3.1206085 0 0 Z " fill="#93C7AF" transform="translate(165,122)"/>
<path d="M0 0 C1.65 0.33 3.3 0.66 5 1 C4.38125 1.061875 3.7625 1.12375 3.125 1.1875 C0.72238859 1.828919 0.72238859 1.828919 -0.25 4.5625 C-0.4975 5.366875 -0.745 6.17125 -1 7 C-1.66 6.67 -2.32 6.34 -3 6 C-3 5.01 -3 4.02 -3 3 C-2.01 3 -1.02 3 0 3 C0 2.01 0 1.02 0 0 Z " fill="#89C1A6" transform="translate(74,174)"/>
</svg>
